<svg id="Group_12587" data-name="Group 12587" xmlns="http://www.w3.org/2000/svg" width="34.984" height="35.47" viewBox="0 0 34.984 35.47">
  <path id="Path_117" data-name="Path 117" d="M34.681,5.008c0,5.372-7.8,12.821-17.341,16.617C7.724,25.493,0,24.2,0,18.832S7.724,6.01,17.341,2.214C26.957-1.654,34.681-.364,34.681,5.008" transform="translate(0 0.022)" fill="#0067b1" fill-rule="evenodd"/>
  <path id="Path_118" data-name="Path 118" d="M3.7,22.133a4.09,4.09,0,0,1-1.817-3.581c0-4.871,7.118-11.962,15.9-15.4C23.538.86,28.839.5,31.565,2.221A4.175,4.175,0,0,1,33.382,5.8c0,4.871-7.118,11.962-15.9,15.4-5.755,2.292-11.056,2.65-13.782.931M17.48,2.794C8.469,6.376,1.2,13.395,1.2,18.552A4.5,4.5,0,0,0,3.32,22.42c2.953,1.862,8.481,1.5,14.463-.86,9.011-3.581,16.28-10.6,16.28-15.758a4.3,4.3,0,0,0-2.12-3.8C28.99.072,23.463.431,17.48,2.794" transform="translate(-0.291 -0.2)" fill="#fff" fill-rule="evenodd"/>
  <path id="Path_119" data-name="Path 119" d="M21.84,15c.076,2.937.151,5.73-1.893,6.661,1.212-4.011-1.212-10.744,2.045-12.893,0,1.361-.3,3.725-.151,5.73,1.817-1.074,5.452-2.937,5.149-6.231-.227-2.292-3.256-2.865-5.906-2.579-4.316.5-8.784,5.014-8.632,8.6.076,1.719,1.742,4.011,4.316,2.865-.3-1.289-1.212-.5-1.439-1.5-.227-1.146,2.423-3.366,3.559-3.008,2.347.716-.833,4.584-.984,4.727-.833.788-2.877,2.292-4.619,1.934-1.666-.358-2.045-2.435-1.893-4.226.227-4.942,5.679-10.1,11.056-10.171,2.5-.072,5.831,1.146,5.149,4.727C26.989,12.42,24.187,13.351,21.84,15" transform="translate(-2.758 -1.374)" fill="#fff" fill-rule="evenodd"/>
  <path id="Path_120" data-name="Path 120" d="M20.909,10.2l.606.716-.909,1L20,11.2Z" transform="translate(-4.855 -2.879)" fill="#fff" fill-rule="evenodd"/>
  <path id="Path_121" data-name="Path 121" d="M22.333,8.6l.606.645-.909,1L21.5,9.6Z" transform="translate(-5.22 -2.425)" fill="#fff" fill-rule="evenodd"/>
  <path id="Path_122" data-name="Path 122" d="M23.333,9.8l.606.645-.909,1L22.5,10.8Z" transform="translate(-5.462 -2.765)" fill="#fff" fill-rule="evenodd"/>
  <path id="Path_123" data-name="Path 123" d="M2.56,39.134v1c0,.215,0,.358.076.43.076,0,.151.072.3.072H3.09v.072H1.5v-.072h.151a.6.6,0,0,0,.379-.143,2.956,2.956,0,0,0,.076-.358V37.845c0-.215,0-.358-.076-.43a.4.4,0,0,0-.3-.143H1.5V37.2H2.863a2.225,2.225,0,0,1,.757.072c.227.072.379.143.454.358A.789.789,0,0,1,4.3,38.2a.894.894,0,0,1-.3.716,1.426,1.426,0,0,1-.833.287h-.3a.476.476,0,0,0-.3-.072m0-.143h.454a.55.55,0,0,0,.454-.215A.685.685,0,0,0,3.7,38.2a.865.865,0,0,0-.076-.43.576.576,0,0,0-.3-.287.716.716,0,0,0-.379-.072.865.865,0,0,0-.379.072Z" transform="translate(-0.364 -10.54)"/>
  <path id="Path_124" data-name="Path 124" d="M6.66,37.387v1.361h.833c.227,0,.379,0,.454-.072a.586.586,0,0,0,.151-.43h.076v1.218H8.023a.71.71,0,0,0-.076-.287.159.159,0,0,0-.151-.143,3.445,3.445,0,0,0-.379-.072H6.66v1.433l.076.072a.342.342,0,0,0,.227.072h.606c.227,0,.379,0,.454-.072.076,0,.151-.072.3-.143a4.9,4.9,0,0,0,.379-.5H8.78l-.3.86H5.6V40.61h.151a.288.288,0,0,0,.227-.072c.076,0,.076-.072.076-.143v-2.65c0-.215,0-.358-.076-.43a.4.4,0,0,0-.3-.143H5.6V37.1H8.4l.076.788H8.4a.532.532,0,0,0-.151-.358c-.076,0-.076-.072-.227-.072a3.445,3.445,0,0,0-.379-.072Z" transform="translate(-1.36 -10.511)"/>
  <path id="Path_125" data-name="Path 125" d="M13.735,40.71H12.75l-1.212-1.576H11.16v1c0,.215,0,.358.076.43a.4.4,0,0,0,.3.143h.151v.072H10.1v-.143h.151c.151,0,.3-.072.3-.143a2.956,2.956,0,0,0,.076-.358V37.845c0-.215,0-.358-.076-.43a.4.4,0,0,0-.3-.143H10.1V37.2h1.363a2.483,2.483,0,0,1,.833.072c.151.072.379.143.454.287a.634.634,0,0,1,.227.5.789.789,0,0,1-.227.573,1.487,1.487,0,0,1-.682.358l.757,1a3.171,3.171,0,0,0,.454.5,1.141,1.141,0,0,0,.53.143v.072ZM11.16,38.919h.151a1.043,1.043,0,0,0,.757-.215.732.732,0,0,0,.3-.573.789.789,0,0,0-.227-.573.888.888,0,0,0-.606-.215,1.4,1.4,0,0,0-.454.072v1.5Z" transform="translate(-2.452 -10.54)"/>
  <path id="Path_126" data-name="Path 126" d="M17.423,38.991a5.408,5.408,0,0,1,.606.215.789.789,0,0,1,.227.573.994.994,0,0,1-.151.5,1.987,1.987,0,0,1-.454.358,2.97,2.97,0,0,1-.909.143H15v-.143h.151a.4.4,0,0,0,.3-.143c.076-.072.076-.215.076-.358V37.845c0-.215,0-.358-.076-.43a.4.4,0,0,0-.3-.143H15V37.2h1.59a2.462,2.462,0,0,1,.757.072,1.557,1.557,0,0,1,.606.287.789.789,0,0,1,.227.573.741.741,0,0,1-.151.43,1.174,1.174,0,0,1-.606.43m-1.363-.143h.53a1.555,1.555,0,0,0,.606-.072.576.576,0,0,0,.3-.287.616.616,0,0,0,.076-.358.634.634,0,0,0-.227-.5,1.175,1.175,0,0,0-.757-.215c-.151,0-.379,0-.454.072v1.361Zm0,1.647a1.984,1.984,0,0,0,.606.072,1.175,1.175,0,0,0,.757-.215.634.634,0,0,0,.227-.5.508.508,0,0,0-.151-.43.75.75,0,0,0-.379-.287,1.771,1.771,0,0,0-.682-.072h-.53v1.433Z" transform="translate(-3.642 -10.54)"/>
  <path id="Path_127" data-name="Path 127" d="M22.323,39.535H20.884l-.227.573a.518.518,0,0,0-.076.287c0,.072,0,.072.076.143a1.617,1.617,0,0,0,.379.072v.072H19.9V40.61a.4.4,0,0,0,.3-.143,1,1,0,0,0,.3-.5L21.793,37.1h.076l1.287,2.937a1.1,1.1,0,0,0,.3.43c.076.072.151.072.379.143v.072H22.4V40.61c.151,0,.227,0,.3-.072s.076-.072.076-.143a.742.742,0,0,0-.076-.358Zm-.076-.215-.606-1.433L20.96,39.32Z" transform="translate(-4.831 -10.511)"/>
  <path id="Path_128" data-name="Path 128" d="M25,37.3h.984l2.272,2.65V37.945c0-.215,0-.358-.076-.358a.4.4,0,0,0-.3-.143h-.151v-.072h1.287v.072h-.151a.4.4,0,0,0-.3.143,2.956,2.956,0,0,0-.076.358v2.937h-.076l-2.423-2.793v2.149c0,.215,0,.358.076.43a.4.4,0,0,0,.3.143h.151v.072H25.227v-.215h.151c.151,0,.3-.072.3-.143.076-.072.076-.215.076-.358V37.73a.554.554,0,0,0-.227-.215c-.076-.072-.151-.072-.227-.143h-.227V37.3Z" transform="translate(-6.069 -10.568)"/>
  <path id="Path_129" data-name="Path 129" d="M32.139,38.776,33.5,40.065a1.585,1.585,0,0,0,.606.43,1.119,1.119,0,0,0,.454.143v.072H32.82v-.072a.289.289,0,0,0,.227-.072c.076,0,.076-.072.076-.143V40.28c0-.072-.076-.072-.151-.215l-1.287-1.218v1.146c0,.143,0,.287.076.358,0,.072.076.072.151.143a.289.289,0,0,0,.227.072h.151v.072H30.851a.4.4,0,0,0,.3-.143,1.39,1.39,0,0,0,.076-.358v-2.65c0-.072-.076-.072-.151-.143a.288.288,0,0,0-.227-.072H30.7V37.2h1.59v.072h-.151a.289.289,0,0,0-.227.072c-.076,0-.076.072-.151.143a1.39,1.39,0,0,0-.076.358v1.074c.076,0,.151-.143.379-.358a10.968,10.968,0,0,0,.984-.931.254.254,0,0,0,.076-.215.071.071,0,0,0-.076-.072c0-.072-.076-.072-.227-.072h-.076V37.2h1.363v.072H33.88c-.076,0-.151.072-.227.072-.076.072-.227.143-.379.287l-.53.5Z" transform="translate(-7.453 -10.54)"/>
  <path id="Path_130" data-name="Path 130" d="M38.223,39.535H36.784l-.227.573a.518.518,0,0,0-.076.287c0,.072,0,.072.076.143a1.617,1.617,0,0,0,.379.072v.072H35.8V40.61a.4.4,0,0,0,.3-.143,1,1,0,0,0,.3-.5L37.693,37.1h.076l1.287,2.937a1.1,1.1,0,0,0,.3.43c.076.072.227.072.379.143v.072H38.223V40.61c.151,0,.227,0,.3-.072s.076-.072.076-.143a1.172,1.172,0,0,0-.151-.358Zm-.076-.215-.606-1.433-.606,1.433Z" transform="translate(-8.691 -10.511)"/>
  <path id="Path_131" data-name="Path 131" d="M40.9,37.3h.984l2.272,2.65V37.945c0-.215,0-.358-.076-.358a.4.4,0,0,0-.3-.143h-.151v-.072h1.287v.072h-.151c-.151,0-.3.072-.3.143a2.956,2.956,0,0,0-.076.358v2.937h-.076l-2.423-2.793v2.149c0,.215,0,.358.076.43a.4.4,0,0,0,.3.143h.151v.072H41.127v-.215h.151a.4.4,0,0,0,.3-.143,2.955,2.955,0,0,0,.076-.358V37.73l-.227-.215c-.076-.072-.151-.072-.227-.143h-.227V37.3Z" transform="translate(-9.929 -10.568)"/>
  <path id="Path_132" data-name="Path 132" d="M14.19,47.866v.072H12.6v-.072h.151c.151,0,.3-.072.3-.143.076-.072.076-.215.076-.43v-2.22c0-.215,0-.286-.076-.358,0-.072-.076-.072-.076-.072a.288.288,0,0,0-.227-.072H12.6V44.5h1.59v.072h-.151a.4.4,0,0,0-.3.143c-.076.072-.076.143-.076.358v2.579c0,.072.076.072.151.143a.288.288,0,0,0,.227.072h.151Z" transform="translate(-3.059 -12.611)"/>
  <path id="Path_133" data-name="Path 133" d="M17.545,44.272v1.218h-.076a1.292,1.292,0,0,0-.151-.573.889.889,0,0,0-.379-.358,1.119,1.119,0,0,0-.454-.143.662.662,0,0,0-.454.143c-.151.072-.151.215-.151.358s0,.215.151.287c.076.143.379.286.833.5a1.3,1.3,0,0,1,.682.43.724.724,0,0,1,.3.358.865.865,0,0,1,.076.43.894.894,0,0,1-.3.716,1.178,1.178,0,0,1-.833.287h-.3a1.617,1.617,0,0,0-.379-.072.791.791,0,0,0-.3-.072c-.076,0-.076,0-.151.072a.246.246,0,0,0-.076.143H15.5V46.779h.076a4.771,4.771,0,0,0,.227.573.75.75,0,0,0,.379.287,1.465,1.465,0,0,0,.53.143,1.141,1.141,0,0,0,.53-.143c.151-.143.227-.215.227-.43a.518.518,0,0,0-.076-.287l-.227-.215a4.685,4.685,0,0,0-.606-.358,2.657,2.657,0,0,1-.682-.43.724.724,0,0,1-.3-.358.739.739,0,0,1-.076-.43.853.853,0,0,1,.3-.645,1,1,0,0,1,.757-.287,1.865,1.865,0,0,1,.606.143.289.289,0,0,0,.227.072h.151a.246.246,0,0,0,.076-.143Z" transform="translate(-3.763 -12.526)"/>
  <path id="Path_134" data-name="Path 134" d="M22.1,47.007h.076l-.3.931H19v-.072h.151a.4.4,0,0,0,.3-.143,2.954,2.954,0,0,0,.076-.358v-2.22c0-.215,0-.358-.076-.43a.4.4,0,0,0-.3-.143H19V44.5h1.666v.072c-.227,0-.3,0-.379.072a.159.159,0,0,0-.151.143,2.408,2.408,0,0,0-.076.43v2.22c0,.143,0,.215.076.287l.076.072h.757a1.37,1.37,0,0,0,.606-.072c.076-.072.227-.072.3-.215a3.4,3.4,0,0,0,.227-.5" transform="translate(-4.613 -12.611)"/>
  <path id="Path_135" data-name="Path 135" d="M26.023,46.764H24.584l-.227.573a.518.518,0,0,0-.076.287c0,.072,0,.072.076.143s.151.072.379.072v.072H23.6v-.072c.151,0,.227-.072.3-.072a1.521,1.521,0,0,0,.3-.5L25.493,44.4h.076l1.287,2.937a1.1,1.1,0,0,0,.3.43.6.6,0,0,0,.379.143v.072H26.1V47.91c.151,0,.227,0,.3-.072.076,0,.076-.072.076-.143a.742.742,0,0,0-.076-.358Zm-.076-.215-.606-1.433-.606,1.433Z" transform="translate(-5.729 -12.582)"/>
  <path id="Path_136" data-name="Path 136" d="M31,47.91l-1.439-2.937v2.364c0,.215,0,.358.076.43s.151.072.3.072h.151v.072H28.8v-.072h.151c.151,0,.3-.072.3-.143.076-.072.076-.143.076-.358V45.045c0-.143,0-.287-.076-.358,0-.072-.076-.072-.151-.143-.076,0-.151-.072-.3-.072V44.4h1.06l1.287,2.722L32.51,44.4h1.06v.072h-.151c-.151,0-.3.072-.3.143-.076.072-.076.143-.076.358v2.292c0,.215,0,.358.076.43s.151.072.3.072h.151v.072H31.98v-.072h.151a.4.4,0,0,0,.3-.143c.076-.072.076-.143.076-.358V44.9l-1.439,2.937H31Z" transform="translate(-6.992 -12.582)"/>
</svg>
